<svg width="24" height="24" viewBox="0 0 24 24" fill="none" xmlns="http://www.w3.org/2000/svg">
<rect width="24" height="24" rx="12" fill="#1F8B48"/>
<path fill-rule="evenodd" clip-rule="evenodd" d="M12.0002 11.1662C11.311 11.1662 10.7502 10.6054 10.7502 9.91621C10.7502 9.22704 11.311 8.66621 12.0002 8.66621C12.6893 8.66621 13.2502 9.22704 13.2502 9.91621C13.2502 10.6054 12.6893 11.1662 12.0002 11.1662ZM12.0002 6.99954C10.3918 6.99954 9.0835 8.30788 9.0835 9.91621C9.0835 11.5245 10.3918 12.8329 12.0002 12.8329C13.6085 12.8329 14.9168 11.5245 14.9168 9.91621C14.9168 8.30788 13.6085 6.99954 12.0002 6.99954ZM12.0002 18.3716C10.6043 17.0516 7.00016 13.3458 7.00016 10.2683C7.00016 7.54746 9.24266 5.33329 12.0002 5.33329C14.7577 5.33329 17.0002 7.54746 17.0002 10.2683C17.0002 13.3458 13.396 17.0516 12.0002 18.3716ZM12.0002 3.66663C8.32433 3.66663 5.3335 6.62746 5.3335 10.2683C5.3335 14.8308 11.2077 19.9175 11.4577 20.1316C11.6143 20.2658 11.8068 20.3333 12.0002 20.3333C12.1935 20.3333 12.386 20.2658 12.5427 20.1316C12.7927 19.9175 18.6668 14.8308 18.6668 10.2683C18.6668 6.62746 15.676 3.66663 12.0002 3.66663Z" fill="white"/>
</svg>
