<svg width="36" height="36" viewBox="0 0 36 36" fill="none" xmlns="http://www.w3.org/2000/svg">
<rect width="36" height="36" rx="18" fill="#1F8B48"/>
<path fill-rule="evenodd" clip-rule="evenodd" d="M9.94849 12H26.0515C26.5735 12 27.0005 12.427 27.0005 12.949V13.051C27.0005 13.573 26.5735 14 26.0515 14H9.94849C9.42649 14 9.00049 13.573 9.00049 13.051V12.949C9.00049 12.427 9.42649 12 9.94849 12ZM26.0515 17H9.94849C9.42649 17 9.00049 17.427 9.00049 17.949V18.051C9.00049 18.573 9.42649 19 9.94849 19H26.0515C26.5735 19 27.0005 18.573 27.0005 18.051V17.949C27.0005 17.427 26.5735 17 26.0515 17ZM26.0515 22H9.94849C9.42649 22 9.00049 22.427 9.00049 22.949V23.051C9.00049 23.573 9.42649 24 9.94849 24H26.0515C26.5735 24 27.0005 23.573 27.0005 23.051V22.949C27.0005 22.427 26.5735 22 26.0515 22Z" fill="white"/>
</svg>
