<svg width="130" height="36" viewBox="0 0 130 36" fill="none" xmlns="http://www.w3.org/2000/svg">
<path d="M54.2535 9.77142C49.7883 9.77142 46.1582 13.3982 46.1582 17.8594C46.1582 22.3206 49.7883 25.9474 54.2535 25.9474C58.7188 25.9474 62.3488 22.3206 62.3488 17.8594C62.3488 13.3982 58.7188 9.77142 54.2535 9.77142ZM54.2535 24.3192C50.6886 24.3192 47.7879 21.4211 47.7879 17.8594C47.7879 14.2978 50.6886 11.3996 54.2535 11.3996C57.8184 11.3996 60.7192 14.2978 60.7192 17.8594C60.7192 21.4211 57.8184 24.3192 54.2535 24.3192Z" fill="#1F8B48"/>
<path d="M88.3175 9.77142C83.8522 9.77142 80.2222 13.3982 80.2222 17.8594C80.2222 22.3206 83.8522 25.9474 88.3175 25.9474C92.7828 25.9474 96.4128 22.3206 96.4128 17.8594C96.4128 13.3982 92.7828 9.77142 88.3175 9.77142ZM88.3175 24.3192C84.7526 24.3192 81.8518 21.4211 81.8518 17.8594C81.8518 14.2978 84.7526 11.3996 88.3175 11.3996C91.8824 11.3996 94.7832 14.2978 94.7832 17.8594C94.7832 21.4211 91.8824 24.3192 88.3175 24.3192Z" fill="#1F8B48"/>
<path d="M76.5309 10.7202C73.4549 9.38097 69.939 10.0485 67.5678 12.4175C64.4103 15.5721 64.4103 20.7009 67.5678 23.8555C69.1201 25.4063 71.1856 26.2286 73.2879 26.2286C74.3105 26.2286 75.3453 26.0332 76.3354 25.6343C76.7509 25.4633 76.9546 24.9912 76.7835 24.576C76.6124 24.1608 76.1398 23.9573 75.7202 24.1282C73.3083 25.1051 70.5582 24.5475 68.7167 22.7076C66.1948 20.188 66.1948 16.0931 68.7167 13.5735C70.6112 11.6808 73.4223 11.1475 75.875 12.2181C76.2865 12.3972 76.7672 12.2099 76.9465 11.7988C77.1257 11.3877 76.9383 10.9074 76.5268 10.7283L76.5309 10.7202Z" fill="#1F8B48"/>
<path d="M112.277 25.1292V10.5855C112.277 10.1378 111.911 9.77142 111.463 9.77142C111.015 9.77142 110.648 10.1378 110.648 10.5855V22.4794L102.28 10.1296C102.08 9.83248 101.709 9.70223 101.367 9.80806C101.025 9.91389 100.792 10.2273 100.792 10.5855V25.1333C100.792 25.5811 101.159 25.9474 101.607 25.9474C102.055 25.9474 102.422 25.5811 102.422 25.1333V13.2394L110.79 25.5851C110.823 25.634 110.864 25.6787 110.909 25.7194C110.925 25.7317 110.941 25.7439 110.953 25.7561C110.986 25.7805 111.019 25.8049 111.055 25.8253C111.072 25.8375 111.092 25.8456 111.108 25.8538C111.149 25.8741 111.19 25.8863 111.23 25.8985C111.247 25.9026 111.263 25.9108 111.275 25.9148C111.332 25.927 111.393 25.9352 111.455 25.9352C111.528 25.9352 111.597 25.923 111.662 25.9026C111.679 25.8985 111.695 25.8945 111.711 25.8863C111.78 25.8619 111.85 25.8334 111.907 25.7927C111.911 25.7927 111.915 25.7846 111.919 25.7846C111.96 25.7561 111.996 25.7276 112.029 25.691C112.049 25.6706 112.062 25.6503 112.082 25.6299C112.098 25.6095 112.115 25.5892 112.131 25.5688C112.147 25.5444 112.159 25.52 112.172 25.4956C112.184 25.4712 112.196 25.4508 112.208 25.4264C112.22 25.402 112.225 25.3735 112.233 25.345C112.241 25.3205 112.249 25.3002 112.253 25.2758C112.261 25.2228 112.269 25.174 112.269 25.1211L112.277 25.1292Z" fill="#1F8B48"/>
<path d="M129.181 9.77142H117.924C117.476 9.77142 117.109 10.1378 117.109 10.5855C117.109 11.0333 117.476 11.3996 117.924 11.3996H122.74V25.1333C122.74 25.5811 123.107 25.9474 123.555 25.9474C124.003 25.9474 124.37 25.5811 124.37 25.1333V11.3996H129.185C129.633 11.3996 130 11.0333 130 10.5855C130 10.1378 129.633 9.77142 129.185 9.77142H129.181Z" fill="#1F8B48"/>
<path d="M39.9166 20.1061C41.917 19.3286 43.3429 17.3911 43.3429 15.1239C43.3429 12.1728 40.9392 9.7753 37.9895 9.7753H32.6727C32.2246 9.7753 31.8579 10.1416 31.8579 10.5894V25.1372C31.8579 25.5849 32.2246 25.9513 32.6727 25.9513C33.1209 25.9513 33.4876 25.5849 33.4876 25.1372V20.4765H37.9895C38.0588 20.4765 38.1239 20.4684 38.1932 20.4643L41.8559 25.8699C42.0148 26.1019 42.2714 26.2281 42.5322 26.2281C42.6911 26.2281 42.8499 26.1833 42.9885 26.0897C43.3633 25.8373 43.457 25.3326 43.2085 24.9581L39.9247 20.1102L39.9166 20.1061ZM33.4835 11.3994H37.9854C40.0388 11.3994 41.7092 13.0683 41.7092 15.1198C41.7092 17.1713 40.0388 18.8402 37.9854 18.8402H33.4835V11.3994Z" fill="#1F8B48"/>
<path d="M23.1866 12.8694L1.35758 0.124284C0.754495 -0.228738 0 0.212539 0 0.915987V26.4088C0 27.1123 0.754495 27.5536 1.35758 27.2005L23.184 14.4554C23.7871 14.1024 23.7871 13.2224 23.184 12.8694H23.1866Z" fill="#1F8B48"/>
<path d="M2.87419 30.3078L12.4055 35.8757C13.0086 36.2287 13.763 35.7875 13.763 35.084V23.9508C13.763 23.2474 13.0086 22.8061 12.4055 23.1591L2.87419 28.727C2.2711 29.08 2.2711 29.96 2.87419 30.313V30.3078Z" fill="#1F8B48"/>
</svg>
