<svg width="24" height="24" viewBox="0 0 24 24" fill="none" xmlns="http://www.w3.org/2000/svg">
<rect width="24" height="24" rx="12" fill="#1F8B48"/>
<path fill-rule="evenodd" clip-rule="evenodd" d="M17.8332 17H6.1665C5.70734 17 5.33317 16.6267 5.33317 16.1667V8.04171L11.4998 12.6667C11.6482 12.7784 11.824 12.8334 11.9998 12.8334C12.1757 12.8334 12.3515 12.7784 12.4998 12.6667L18.6665 8.04171V16.1667C18.6665 16.6267 18.2923 17 17.8332 17ZM17.2773 7.00004L11.9998 10.9584L6.72234 7.00004H17.2773ZM17.8332 5.33337H6.1665C4.78817 5.33337 3.6665 6.45504 3.6665 7.83337V16.1667C3.6665 17.545 4.78817 18.6667 6.1665 18.6667H17.8332C19.2115 18.6667 20.3332 17.545 20.3332 16.1667V7.83337C20.3332 6.45504 19.2115 5.33337 17.8332 5.33337Z" fill="white"/>
</svg>
