<svg width="24" height="24" viewBox="0 0 24 24" fill="none" xmlns="http://www.w3.org/2000/svg">
<rect width="24" height="24" rx="12" fill="#1F8B48"/>
<path fill-rule="evenodd" clip-rule="evenodd" d="M7.50033 5.33329C6.30533 5.33329 5.33366 6.30496 5.33366 7.49996C5.33366 13.6566 10.3428 18.6666 16.5003 18.6666C17.6945 18.6666 18.667 17.695 18.667 16.5C18.667 16.4075 18.6612 16.3166 18.6495 16.2266L14.7995 15.3433C14.7228 15.49 14.6387 15.6491 14.562 15.7975C14.182 16.5225 13.907 17.0491 13.2053 16.7666C10.4503 15.8 8.20116 13.55 7.22199 10.7616C6.92449 10.1075 7.49116 9.81079 8.20949 9.43579C8.35533 9.35913 8.51283 9.27663 8.65699 9.20163L7.77366 5.35079C7.68116 5.33913 7.59116 5.33329 7.50033 5.33329ZM16.5003 20.3333C9.42366 20.3333 3.66699 14.5766 3.66699 7.49996C3.66699 5.38579 5.38616 3.66663 7.50033 3.66663C7.71699 3.66663 7.93116 3.68496 8.13866 3.72079C8.34116 3.75329 8.54449 3.80496 8.74283 3.87329C9.01366 3.96746 9.21783 4.19496 9.28199 4.47496L10.4228 9.44496C10.4862 9.71829 10.407 10.005 10.212 10.2083C10.0987 10.3266 10.0962 10.3291 9.06283 10.87C9.89949 12.6816 11.3537 14.1308 13.1287 14.9391C13.6703 13.905 13.6737 13.9016 13.792 13.7883C13.9953 13.5933 14.2837 13.5175 14.5553 13.5775L19.5262 14.7183C19.8053 14.7825 20.0328 14.9858 20.1262 15.2566C20.1945 15.4533 20.2462 15.6566 20.2803 15.8658C20.3153 16.0716 20.3337 16.285 20.3337 16.5C20.3337 18.6141 18.6137 20.3333 16.5003 20.3333Z" fill="white"/>
</svg>
