<svg width="24" height="24" viewBox="0 0 24 24" fill="none" xmlns="http://www.w3.org/2000/svg">
<rect width="24" height="24" rx="12" fill="#1F8B48"/>
<path fill-rule="evenodd" clip-rule="evenodd" d="M15.3332 11.1666H12.8332V8.66663C12.8332 8.20579 12.4598 7.83329 11.9998 7.83329C11.5398 7.83329 11.1665 8.20579 11.1665 8.66663V12C11.1665 12.4608 11.5398 12.8333 11.9998 12.8333H15.3332C15.794 12.8333 16.1665 12.4608 16.1665 12C16.1665 11.5391 15.794 11.1666 15.3332 11.1666ZM11.9998 18.6666C8.324 18.6666 5.33317 15.6758 5.33317 12C5.33317 8.32413 8.324 5.33329 11.9998 5.33329C15.6757 5.33329 18.6665 8.32413 18.6665 12C18.6665 15.6758 15.6757 18.6666 11.9998 18.6666ZM11.9998 3.66663C7.40484 3.66663 3.6665 7.40496 3.6665 12C3.6665 16.595 7.40484 20.3333 11.9998 20.3333C16.5948 20.3333 20.3332 16.595 20.3332 12C20.3332 7.40496 16.5948 3.66663 11.9998 3.66663Z" fill="white"/>
</svg>
